<?xml version="1.0" encoding="UTF-8" standalone="no"?>
<svg
   xmlns:dc="http://purl.org/dc/elements/1.1/"
   xmlns:cc="http://creativecommons.org/ns#"
   xmlns:rdf="http://www.w3.org/1999/02/22-rdf-syntax-ns#"
   xmlns:svg="http://www.w3.org/2000/svg"
   xmlns="http://www.w3.org/2000/svg"
   xmlns:sodipodi="http://sodipodi.sourceforge.net/DTD/sodipodi-0.dtd"
   xmlns:inkscape="http://www.inkscape.org/namespaces/inkscape"
   height="48px"
   viewBox="0 0 24 24"
   width="48px"
   fill="#000000"
   version="1.1"
   id="svg6"
   sodipodi:docname="backspace_black_48dp.svg"
   inkscape:version="0.92.5 (2060ec1f9f, 2020-04-08)">
  <metadata
     id="metadata12">
    <rdf:RDF>
      <cc:Work
         rdf:about="">
        <dc:format>image/svg+xml</dc:format>
        <dc:type
           rdf:resource="http://purl.org/dc/dcmitype/StillImage" />
      </cc:Work>
    </rdf:RDF>
  </metadata>
  <defs
     id="defs10" />
  <sodipodi:namedview
     pagecolor="#ffffff"
     bordercolor="#666666"
     borderopacity="1"
     objecttolerance="10"
     gridtolerance="10"
     guidetolerance="10"
     inkscape:pageopacity="0"
     inkscape:pageshadow="2"
     inkscape:window-width="1920"
     inkscape:window-height="1135"
     id="namedview8"
     showgrid="false"
     inkscape:zoom="4.9166667"
     inkscape:cx="23.79661"
     inkscape:cy="24"
     inkscape:window-x="0"
     inkscape:window-y="0"
     inkscape:window-maximized="1"
     inkscape:current-layer="svg6" />
  <path
     d="m 0.75,0.75 h 22.5 v 22.5 H 0.75 Z"
     id="path2"
     inkscape:connector-curvature="0"
     style="fill:none;stroke-width:0.9375" />
  <path
     d="M 21.375,3.5625 H 7.3125 c -0.646875,0 -1.153125,0.328125 -1.490625,0.825 L 0.75,12 5.821875,19.603125 C 6.159375,20.1 6.665625,20.4375 7.3125,20.4375 H 21.375 c 1.03125,0 1.875,-0.84375 1.875,-1.875 V 5.4375 c 0,-1.03125 -0.84375,-1.875 -1.875,-1.875 z m 0,15 H 7.378125 L 3,12 7.36875,5.4375 H 21.375 Z M 10.509375,16.6875 13.875,13.321875 17.240625,16.6875 18.5625,15.365625 15.196875,12 18.5625,8.634375 17.240625,7.3125 13.875,10.678125 10.509375,7.3125 9.1875,8.634375 12.553125,12 9.1875,15.365625 Z"
     id="path4"
     style="fill:#7d7d7d;fill-opacity:1;stroke-width:0.9375"
     inkscape:connector-curvature="0" />
</svg>
